<svg width="43" height="35" viewBox="0 0 43 35" fill="none" xmlns="http://www.w3.org/2000/svg">
<rect x="1.5" y="1.5" width="41" height="33" rx="7.5" fill="#D9D9D9" stroke="black"/>
<rect x="0.5" y="0.5" width="38" height="30" rx="7.5" fill="#D9D9D9" stroke="black"/>
<path d="M19.25 22H14.7614V7.45455H19.4489C20.8598 7.45455 22.0672 7.74574 23.071 8.32812C24.0748 8.90578 24.8442 9.73674 25.3793 10.821C25.9143 11.9006 26.1818 13.1932 26.1818 14.6989C26.1818 16.214 25.9119 17.5185 25.3722 18.6122C24.8324 19.7012 24.0464 20.5393 23.0142 21.1264C21.982 21.7088 20.7273 22 19.25 22ZM16.5227 20.4375H19.1364C20.339 20.4375 21.3357 20.2055 22.1264 19.7415C22.9171 19.2775 23.5066 18.617 23.8949 17.7599C24.2831 16.9029 24.4773 15.8826 24.4773 14.6989C24.4773 13.5246 24.2855 12.5137 23.902 11.6662C23.5185 10.8139 22.9455 10.1605 22.1832 9.70597C21.4209 9.24669 20.4716 9.01705 19.3352 9.01705H16.5227V20.4375Z" fill="black"/>
</svg>
