<svg width="43" height="35" viewBox="0 0 43 35" fill="none" xmlns="http://www.w3.org/2000/svg">
<rect x="1.5" y="1.5" width="41" height="33" rx="7.5" fill="#D9D9D9" stroke="black"/>
<rect x="0.5" y="0.5" width="38" height="30" rx="7.5" fill="#D9D9D9" stroke="black"/>
<path d="M20.0455 17.4545H21.9773L23.5966 19.5852L24.0227 20.1534L26.4375 23.3636H24.5057L22.9148 21.233L22.517 20.6932L20.0455 17.4545ZM27.0341 14.7273C27.0341 16.2614 26.7571 17.5871 26.2031 18.7045C25.6491 19.822 24.8892 20.6837 23.9233 21.2898C22.9574 21.8958 21.8542 22.1989 20.6136 22.1989C19.3731 22.1989 18.2699 21.8958 17.304 21.2898C16.3381 20.6837 15.5781 19.822 15.0241 18.7045C14.4702 17.5871 14.1932 16.2614 14.1932 14.7273C14.1932 13.1932 14.4702 11.8674 15.0241 10.75C15.5781 9.63258 16.3381 8.77083 17.304 8.16477C18.2699 7.55871 19.3731 7.25568 20.6136 7.25568C21.8542 7.25568 22.9574 7.55871 23.9233 8.16477C24.8892 8.77083 25.6491 9.63258 26.2031 10.75C26.7571 11.8674 27.0341 13.1932 27.0341 14.7273ZM25.3295 14.7273C25.3295 13.4678 25.1188 12.4048 24.6974 11.5384C24.2808 10.6719 23.715 10.0161 23 9.57102C22.2898 9.12595 21.4943 8.90341 20.6136 8.90341C19.733 8.90341 18.9351 9.12595 18.2202 9.57102C17.5099 10.0161 16.9441 10.6719 16.5227 11.5384C16.1061 12.4048 15.8977 13.4678 15.8977 14.7273C15.8977 15.9867 16.1061 17.0497 16.5227 17.9162C16.9441 18.7827 17.5099 19.4384 18.2202 19.8835C18.9351 20.3286 19.733 20.5511 20.6136 20.5511C21.4943 20.5511 22.2898 20.3286 23 19.8835C23.715 19.4384 24.2808 18.7827 24.6974 17.9162C25.1188 17.0497 25.3295 15.9867 25.3295 14.7273Z" fill="black"/>
</svg>
