<svg width="43" height="35" viewBox="0 0 43 35" fill="none" xmlns="http://www.w3.org/2000/svg">
<rect x="1.5" y="1.5" width="41" height="33" rx="7.5" fill="#D9D9D9" stroke="black"/>
<rect x="0.5" y="0.5" width="38" height="30" rx="7.5" fill="#D9D9D9" stroke="black"/>
<path d="M22.7159 11.0909C22.6307 10.3712 22.285 9.8125 21.679 9.41477C21.0729 9.01705 20.3295 8.81818 19.4489 8.81818C18.8049 8.81818 18.2415 8.92235 17.7585 9.13068C17.2803 9.33901 16.9063 9.62547 16.6364 9.99006C16.3712 10.3546 16.2386 10.7689 16.2386 11.233C16.2386 11.6212 16.331 11.955 16.5156 12.2344C16.705 12.509 16.9465 12.7386 17.2401 12.9233C17.5336 13.1032 17.8414 13.2524 18.1634 13.3707C18.4853 13.4844 18.7812 13.5767 19.0511 13.6477L20.5284 14.0455C20.9072 14.1449 21.3286 14.2822 21.7926 14.4574C22.2614 14.6326 22.7088 14.8717 23.1349 15.1747C23.5658 15.473 23.9209 15.8565 24.2003 16.3253C24.4796 16.794 24.6193 17.3693 24.6193 18.0511C24.6193 18.8371 24.4134 19.5473 24.0014 20.1818C23.5942 20.8163 22.9976 21.3205 22.2116 21.6946C21.4304 22.0687 20.4811 22.2557 19.3636 22.2557C18.322 22.2557 17.42 22.0876 16.6577 21.7514C15.9001 21.4152 15.3035 20.9465 14.8679 20.3452C14.437 19.7438 14.1932 19.0455 14.1364 18.25H15.9545C16.0019 18.7992 16.1866 19.2538 16.5085 19.6136C16.8352 19.9687 17.2472 20.2339 17.7443 20.4091C18.2462 20.5795 18.786 20.6648 19.3636 20.6648C20.036 20.6648 20.6397 20.5559 21.1747 20.3381C21.7098 20.1155 22.1335 19.8078 22.446 19.4148C22.7585 19.017 22.9148 18.553 22.9148 18.0227C22.9148 17.5398 22.7798 17.1468 22.5099 16.8438C22.2401 16.5407 21.8849 16.2945 21.4446 16.1051C21.0043 15.9157 20.5284 15.75 20.017 15.608L18.2273 15.0966C17.0909 14.7699 16.1913 14.3035 15.5284 13.6974C14.8655 13.0914 14.5341 12.2983 14.5341 11.3182C14.5341 10.5038 14.7543 9.79356 15.1946 9.1875C15.6397 8.5767 16.2363 8.10322 16.9844 7.76705C17.7372 7.42614 18.5777 7.25568 19.5057 7.25568C20.4432 7.25568 21.2765 7.42377 22.0057 7.75994C22.7348 8.09138 23.3125 8.54593 23.7386 9.12358C24.1695 9.70123 24.3968 10.357 24.4205 11.0909H22.7159Z" fill="black"/>
</svg>
